# xmcd
# Copyright (C) 1995-1998 Ti Kan
#
# Track frame offsets:
#       150
#       16830
#       32301
#       47353
#       63515
#       82888
#       99439
#       112880
#       125503
#       138799
#       147956
#       161931
#       175231
#
# Disc length: 2547 seconds
#
# Revision: 0
# Processed by: cddbd v1.5.2PL0 Copyright (c) Steve Scherf et al.
# Submitted via: CD-Import v1.0
#
DISCID=9b09f10d
DTITLE=Sparrow And The Workshop - Crystals Fall
DYEAR=2010
DGENRE=
TTITLE0=Into The Wild
TTITLE1=Blame It On Me
TTITLE2=I Will Break You
TTITLE3=Mercenary
TTITLE4=Crystals
TTITLE5=Swam Like Sharks
TTITLE6=Last Chance
TTITLE7=Devil Song
TTITLE8=The Gun
TTITLE9=Broken Heart Broken Home
TTITLE10=Medal Around Your Neck
TTITLE11=A Horse's Grin
TTITLE12=You've Got It All
EXTD=
EXTT0=
EXTT1=
EXTT2=
EXTT3=
EXTT4=
EXTT5=
EXTT6=
EXTT7=
EXTT8=
EXTT9=
EXTT10=
EXTT11=
EXTT12=
PLAYORDER=
